Fly_normalized_Motion_pl11
version=1
nRows=23
nColumns=43
inDegrees=yes
endheader
time		pelvis_tilt		pelvis_list		pelvis_rotation		pelvis_tx		pelvis_ty		pelvis_tz		hip_flexion_r		hip_adduction_r		hip_rotation_r		knee_angle_r		ankle_angle_r		subtalar_angle_r		mtp_angle_r		hip_flexion_l		hip_adduction_l		hip_rotation_l		knee_angle_l		ankle_angle_l		subtalar_angle_l		mtp_angle_l		lumbar_extension		lumbar_bending		lumbar_rotation		neck_flexion		neck_lateral_bending		neck_rotation		arm_flex_r		arm_add_r		arm_rot_r		elbow_flex_r		pro_sup_r		wrist_flex_r		wrist_dev_r		hand_finger_flex_r		arm_flex_l		arm_add_l		arm_rot_l		elbow_flex_l		pro_sup_l		wrist_flex_l		wrist_dev_l		hand_finger_flex_l		
1.845000		3.816643		-9.990204		89.859153		-0.019731		1.657707		1.051219		52.797868		-6.940017		-14.076100		-77.316624		-15.220082		3.212903		28.244817		42.269270		-9.813188		-1.990054		-77.410207		-21.485277		-5.433693		7.686013		-25.061199		3.947047		0.548825		-13.909987		4.047448		1.762822		53.160760		-30.744190		27.264648		58.215568		123.472644		9.062977		-3.683406		-35.116489		41.930775		-44.088758		19.844079		62.590837		120.738900		-4.783893		2.940324		-19.669056		
1.849091		3.741908		-9.669993		89.787592		-0.019661		1.653429		1.042725		51.905938		-6.833494		-14.283994		-75.643803		-15.777764		3.464975		28.525106		41.604822		-9.849787		-2.657982		-75.739247		-21.585844		-5.398954		7.547413		-25.190960		3.945963		0.340701		-14.399047		3.959555		1.998709		51.134104		-31.368376		26.588212		58.056489		124.470997		9.683164		-3.166247		-35.852337		38.421417		-45.364454		18.838143		62.814973		120.927324		-4.944540		3.193377		-19.576399		
1.853182		3.669070		-9.354426		89.749315		-0.019595		1.648939		1.034167		50.999677		-6.740628		-14.473421		-73.963527		-16.362782		3.721840		28.805481		40.940322		-9.884148		-3.343833		-74.057045		-21.622237		-5.338969		7.442721		-25.316936		3.937803		0.119042		-14.890099		3.903969		2.229818		49.045258		-32.063400		25.938991		57.934582		125.333661		10.241857		-2.710358		-36.535963		34.803386		-46.603916		17.743385		63.098353		121.214883		-5.050944		3.405626		-19.571712		
1.857273		3.602855		-8.984099		89.691299		-0.019426		1.644458		1.025507		50.026542		-6.584272		-14.569216		-72.247896		-17.036998		3.992724		29.165324		40.153451		-9.887729		-3.976069		-72.287538		-21.536828		-5.250706		7.368848		-25.537151		3.908951		-0.157598		-15.244745		3.914074		2.528640		46.864607		-32.577571		25.042343		57.799072		126.177087		10.729424		-2.233153		-37.316175		30.754023		-47.683434		15.943826		63.510878		121.730988		-5.144158		3.647585		-19.747517		
1.861364		3.500049		-8.591656		89.617179		-0.019304		1.639691		1.016968		49.034575		-6.498472		-14.705046		-70.542045		-17.606099		4.113100		29.608773		39.360970		-9.893588		-4.708888		-70.545709		-21.403475		-5.007089		7.316482		-25.850429		3.851286		-0.522938		-15.345407		3.850630		2.915294		44.824766		-33.218337		24.458083		57.823716		127.020734		11.304667		-1.922306		-37.841664		26.331871		-48.781175		13.618473		64.160460		122.825526		-4.614282		3.748586		-20.052707		
1.865455		3.443387		-8.281708		89.645960		-0.019264		1.634673		1.008475		48.093941		-6.429421		-14.907571		-68.783164		-18.242204		4.187771		29.785760		38.683127		-9.855024		-5.315661		-68.789683		-21.233288		-4.740563		7.258137		-26.054311		3.821321		-0.648243		-15.570690		4.080559		2.962725		42.331777		-34.183314		23.569374		58.004637		127.237054		11.180558		-1.702619		-37.944138		22.509338		-49.534212		12.027486		64.404334		123.596227		-4.337732		3.680582		-20.366141		
1.869545		3.369182		-7.923032		89.648993		-0.019234		1.629311		1.000043		47.144761		-6.396884		-15.118869		-67.112109		-18.790791		4.211256		30.085289		37.958061		-9.801617		-5.937280		-67.044345		-21.098022		-4.425561		7.123181		-26.304903		3.797828		-0.910683		-15.876596		4.037493		3.146741		40.140827		-35.192485		23.242844		58.156972		127.730221		11.393412		-1.617005		-37.668036		18.330219		-50.405630		10.012031		64.857806		124.957969		-3.338313		3.548965		-20.627145		
1.873636		3.314045		-7.538877		89.634553		-0.019096		1.624059		0.991684		46.116011		-6.242073		-15.198966		-65.295411		-19.369612		4.189142		30.280210		37.148387		-9.715500		-6.456121		-65.194271		-20.814140		-3.976000		6.887744		-26.690486		3.723172		-1.027756		-15.713749		4.336579		3.178499		37.498533		-36.098934		22.106543		58.441799		127.767965		11.060703		-1.489128		-37.165081		14.083653		-50.901082		7.583830		65.295632		126.262710		-2.689932		3.209515		-20.933591		
1.877727		3.242849		-7.249845		89.678289		-0.019193		1.618156		0.983262		45.218305		-6.220354		-15.401651		-63.605189		-19.883417		4.257661		30.432276		36.502722		-9.595172		-7.001987		-63.419107		-20.748880		-3.617900		6.636769		-26.846691		3.706780		-1.157627		-16.158340		4.436433		3.148368		35.002413		-37.268443		21.616426		58.606534		127.826006		10.925466		-1.506189		-36.617160		10.119539		-51.512280		5.915456		65.548599		127.423315		-1.977795		2.950639		-21.145617		
1.881818		3.122784		-6.818693		89.627461		-0.019118		1.612425		0.974779		44.168389		-6.108242		-15.382276		-61.848080		-20.341825		4.321143		30.556228		35.588909		-9.443795		-7.600534		-61.511876		-20.576411		-3.024494		6.140447		-27.290760		3.527420		-1.363156		-15.963220		4.816468		3.184598		32.354878		-38.068905		20.497317		58.731615		127.757286		10.471185		-1.538897		-35.431924		5.364194		-51.731565		2.695924		66.200603		129.482432		-1.015483		2.510580		-21.452134		
1.885909		3.041372		-6.603334		89.716321		-0.019136		1.606010		0.966510		43.367078		-6.046181		-15.459286		-60.157783		-20.682215		4.365658		30.556279		35.012697		-9.274141		-8.091711		-59.694359		-20.577393		-2.443971		5.852722		-27.459776		3.419834		-1.404507		-15.939156		5.239121		3.053045		29.381119		-39.137524		19.358457		58.900259		127.450960		9.954393		-1.792121		-34.862054		1.296624		-52.162433		0.877156		66.602731		130.537325		-0.783586		2.125531		-21.782928		
1.890000		2.946191		-6.398223		89.822133		-0.019454		1.599249		0.958208		42.591902		-6.062021		-15.563515		-58.507439		-21.022257		4.418023		30.480024		34.484933		-9.070257		-8.613117		-57.935781		-20.728766		-1.913630		5.715873		-27.529712		3.347130		-1.303628		-16.412161		5.622178		2.752971		26.291156		-40.422965		18.371149		59.080900		127.212058		9.709886		-2.006789		-34.552821		-2.287581		-52.539280		-0.212170		66.788650		131.223516		-0.706360		1.931508		-21.926020		
1.894091		2.857719		-6.152187		89.928391		-0.019478		1.592443		0.949885		41.774253		-5.997329		-15.577718		-56.834262		-21.202275		4.377839		30.348109		33.838449		-8.871177		-9.092342		-56.054489		-20.721933		-1.178674		5.697413		-27.768223		3.169480		-1.174075		-16.121523		6.359475		2.375623		22.703772		-41.196772		16.203508		59.182132		126.997023		9.188260		-2.430322		-34.324636		-6.246178		-52.615946		-2.182665		67.235734		132.325716		-0.873729		1.699298		-22.073714		
1.898182		2.768292		-5.927622		90.052889		-0.019721		1.585286		0.941686		40.998206		-5.999311		-15.670972		-55.216859		-21.323882		4.313296		30.177090		33.277294		-8.661703		-9.600613		-54.259171		-20.794737		-0.604925		5.743180		-27.920773		3.067891		-1.060959		-16.213649		6.865366		2.111491		19.321136		-42.117255		14.592091		59.199707		127.183944		8.936486		-2.913932		-34.028450		-10.035368		-52.738581		-3.806720		67.588885		133.504881		-0.809714		1.476934		-22.077240		
1.902273		2.700183		-5.728959		90.198886		-0.020011		1.577877		0.933515		40.253941		-6.008600		-15.807195		-53.614352		-21.366369		4.198942		29.965265		32.750842		-8.456481		-10.090846		-52.473488		-20.886599		-0.131604		5.843910		-28.020622		3.014969		-0.959945		-16.383909		7.280117		1.889062		15.933082		-42.956744		13.050977		59.111092		127.528849		8.689196		-3.419873		-33.834656		-13.784255		-52.797828		-5.343738		67.853152		134.562989		-0.854099		1.209168		-22.092740		
1.906364		2.624173		-5.524690		90.313275		-0.020234		1.570262		0.925348		39.508239		-6.010805		-15.957786		-52.029876		-21.329241		4.034404		29.690000		32.206444		-8.253603		-10.605910		-50.684181		-21.026882		0.219127		5.956094		-28.109727		2.958663		-0.863910		-16.593246		7.595911		1.726267		12.570889		-43.715516		11.612262		58.964562		128.027384		8.502954		-3.881713		-33.725898		-17.536913		-52.783596		-6.862114		68.042847		135.545058		-0.950813		0.861783		-22.118058		
1.910455		2.491986		-5.254607		90.385333		-0.020364		1.562518		0.917238		38.738220		-6.052067		-16.070813		-50.528515		-21.251119		3.847004		29.210920		31.559603		-8.041192		-11.267030		-48.874029		-21.229887		0.494486		6.083486		-28.302807		2.822810		-0.793683		-16.614832		7.909674		1.697040		9.268884		-44.483572		10.347661		58.853464		128.992802		8.587565		-4.412224		-33.560001		-21.436733		-52.715589		-8.655418		68.339558		136.856585		-0.862573		0.300844		-22.092062		
1.914545		2.468161		-5.143089		90.503359		-0.020534		1.554444		0.908986		38.086694		-5.974679		-16.185320		-48.971204		-21.112652		3.620455		28.923125		31.078448		-7.880493		-11.790350		-47.043873		-21.487789		0.560450		6.051368		-28.209308		2.862669		-0.703112		-17.178160		7.928531		1.554380		5.908152		-45.048677		9.122230		58.536913		129.249285		8.295029		-4.465968		-33.741492		-25.029519		-52.466629		-9.968502		68.252719		137.344761		-1.241495		-0.066345		-22.323533		
1.918636		2.348560		-4.937882		90.538302		-0.020586		1.546138		0.900805		37.427327		-5.996213		-16.305143		-47.565976		-21.038060		3.399120		28.476444		30.491471		-7.706018		-12.520083		-45.266773		-21.792706		0.634962		5.961496		-28.249047		2.750816		-0.587418		-17.516369		8.038657		1.512187		2.499215		-45.695955		8.033882		58.412871		129.955376		8.355918		-4.573938		-33.789945		-28.763845		-52.167608		-11.608274		68.351092		138.176843		-1.364108		-0.666619		-22.491320		
1.922727		2.264327		-4.777194		90.562267		-0.020664		1.537719		0.892544		36.785641		-5.957757		-16.379141		-46.108494		-20.956334		3.222134		27.971316		29.908555		-7.555043		-13.252377		-43.437536		-22.052766		0.648604		5.842136		-28.207101		2.693837		-0.519752		-18.020105		8.005287		1.482614		-0.801032		-46.085792		6.851719		58.108835		130.760418		8.425790		-4.557319		-33.840798		-32.456189		-51.638537		-13.321362		68.350803		139.036578		-1.444861		-1.209120		-22.678433		
1.926818		2.153756		-4.642209		90.560140		-0.020773		1.529005		0.884384		36.216706		-5.942978		-16.424621		-44.706236		-20.889596		3.046576		27.338943		29.354111		-7.376891		-14.010444		-41.627655		-22.248541		0.680698		5.678364		-28.164604		2.589586		-0.459782		-18.337593		8.061730		1.493333		-4.121029		-46.336846		5.531364		57.832492		131.816892		8.583663		-4.455631		-33.819032		-36.183648		-50.966626		-15.184102		68.428430		139.922620		-1.506861		-1.882216		-22.901870		
1.930909		2.048434		-4.531419		90.582335		-0.020713		1.520054		0.876217		35.674928		-5.900325		-16.421350		-43.310302		-20.834796		2.888553		26.820599		28.838669		-7.197213		-14.712503		-39.843002		-22.339247		0.772401		5.529357		-28.081073		2.468193		-0.386317		-18.600177		8.120770		1.463995		-7.494584		-46.294598		3.952055		57.472193		132.816733		8.690717		-4.182555		-33.678894		-39.820710		-50.235786		-17.012183		68.484174		140.490745		-1.678144		-2.521007		-23.038711		
1.935000		1.942003		-4.409700		90.582561		-0.020838		1.510929		0.868018		35.151778		-5.915413		-16.509999		-41.988704		-20.938408		2.859462		26.292563		28.302781		-7.005079		-15.436826		-38.064898		-22.453664		0.950576		5.363417		-27.951312		2.370885		-0.244448		-19.156739		8.089599		1.301667		-10.870231		-46.336238		2.547967		57.094085		133.941909		8.940749		-4.085241		-33.349296		-43.214171		-49.491708		-18.553863		68.505170		140.992316		-1.734358		-3.034451		-23.021807		
